<?xml version="1.0" encoding="UTF-8"?>
<svg width="61px" height="61px" viewBox="0 0 61 61" version="1.1" xmlns="http://www.w3.org/2000/svg" xmlns:xlink="http://www.w3.org/1999/xlink">
    <title>devops_apps_img_cicd@1x</title>
    <defs>
        <radialGradient cx="50%" cy="50%" fx="50%" fy="50%" r="65.8142597%" id="radialGradient-1">
            <stop stop-color="#F8FDFF" offset="0%"></stop>
            <stop stop-color="#E6F8FF" offset="100%"></stop>
        </radialGradient>
        <linearGradient x1="79.8295161%" y1="68.4240122%" x2="38.1798808%" y2="50%" id="linearGradient-2">
            <stop stop-color="#FFD838" offset="0%"></stop>
            <stop stop-color="#FFB01A" offset="100%"></stop>
        </linearGradient>
        <linearGradient x1="-6.56985948%" y1="29.0531467%" x2="92.4898075%" y2="50%" id="linearGradient-3">
            <stop stop-color="#65D2FF" offset="0%"></stop>
            <stop stop-color="#35A6FF" offset="100%"></stop>
        </linearGradient>
    </defs>
    <g id="CICD-平台切图" stroke="none" stroke-width="1" fill="none" fill-rule="evenodd">
        <g id="CICD-切图" transform="translate(-6.000000, -28.000000)">
            <g id="编组-66备份" transform="translate(6.987255, 28.673662)">
                <g id="编组-5" fill="url(#radialGradient-1)">
                    <rect id="矩形备份-11" x="0" y="0" width="60" height="60" rx="4"></rect>
                </g>
                <g id="编组-24备份-15" transform="translate(8.000000, 19.000000)" fill-rule="nonzero">
                    <g id="编组-14" transform="translate(14.153846, 0.000000)" fill="url(#linearGradient-2)">
                        <path d="M17.4085911,-7.14095449e-13 C23.3129468,-7.14095449e-13 28.0993729,4.78642606 28.0993729,10.6907818 C28.0993729,16.5951376 23.3129468,21.3815636 17.4085911,21.3815636 C14.9127045,21.3815636 12.5418496,20.5202613 10.6477578,18.9726424 C10.388098,18.7604803 10.0997139,18.4922721 9.7779674,18.1645479 L9.7779674,18.1645479 L9.30651936,17.666 L12.7205194,13.523 L12.9860961,13.8245874 L13.350135,14.2223946 L13.657419,14.5401933 L13.9052687,14.775979 L14.0060684,14.8624906 C14.9607609,15.642548 16.1480388,16.0738713 17.4085911,16.0738713 C20.3815893,16.0738713 22.7916806,13.6637801 22.7916806,10.6907818 C22.7916806,7.71778358 20.3815893,5.30769231 17.4085911,5.30769231 C16.123939,5.30769231 14.9154027,5.75581993 13.9524289,6.5634778 L13.9524289,6.5634778 L13.7693382,6.73521404 L13.5759002,6.94023754 L12.8590255,7.7682122 L10.4255524,10.7228539 L10.4345194,10.733 L6.58351936,15.405 L6.48628218,15.5234446 L5.63149871,16.5247733 L4.91167844,17.3355013 L4.49605785,17.781353 L4.12434096,18.1593767 L3.79009578,18.4763258 L0.220519364,14.5482573 L0.32506721,14.4506808 L0.709222588,14.0615305 L1.0346552,13.7092614 L1.61955,13.0479566 L2.32723258,12.220124 L3.4748263,10.8436024 L8.14614528,5.1282832 L9.28140618,3.77554617 L9.82374242,3.1710239 L10.1653335,2.8287096 L10.5416348,2.49677388 C12.4517051,0.894774566 14.8647846,-7.14095449e-13 17.4085911,-7.14095449e-13 Z" id="形状结合"></path>
                    </g>
                    <path d="M10.6907818,3.14278518e-15 C13.2345883,3.14278518e-15 15.6476677,0.894774566 17.5577381,2.49677388 L17.8162142,2.72649235 L18.1178716,3.01837501 L18.4634226,3.37314614 L18.836,3.773 L15.424,7.912 L15.2694518,7.73472333 L14.8959406,7.31994194 L14.4481347,6.84704183 L14.2258656,6.63260594 L14.1469439,6.5634778 C13.1839701,5.75581993 11.9754338,5.30769231 10.6907818,5.30769231 C7.71778358,5.30769231 5.30769231,7.71778358 5.30769231,10.6907818 C5.30769231,13.6637801 7.71778358,16.0738713 10.6907818,16.0738713 C11.9513341,16.0738713 13.138612,15.642548 14.0933045,14.8624906 L14.1846557,14.7837578 L14.413151,14.5643926 L14.7018294,14.263359 L15.0496419,13.8816943 L15.6799428,13.1602828 L16.4373954,12.2632859 L17.3184597,11.1942044 L17.7511679,10.6609308 L17.749,10.657 L21.227,6.437 L24.9502859,10.2898597 L24.5793986,10.7228539 L21.1657833,14.8770078 L20.0131588,16.2572763 L19.4521738,16.9084191 L18.9451437,17.4795978 L18.4909469,17.9719212 L18.0884619,18.3864986 C18.0256281,18.4491776 17.9649022,18.5086634 17.9062609,18.5649791 L17.5792409,18.8650169 L17.4516151,18.9726424 C15.5575233,20.5202613 13.1866683,21.3815636 10.6907818,21.3815636 C4.78642606,21.3815636 2.19994962e-14,16.5951376 2.19994962e-14,10.6907818 C2.19994962e-14,4.78642606 4.78642606,3.14278518e-15 10.6907818,3.14278518e-15 Z" id="形状结合" fill="url(#linearGradient-3)"></path>
                </g>
            </g>
        </g>
    </g>
</svg>