<?xml version="1.0" encoding="UTF-8"?>
<svg width="60px" height="61px" viewBox="0 0 60 61" version="1.1" xmlns="http://www.w3.org/2000/svg" xmlns:xlink="http://www.w3.org/1999/xlink">
    <title>devops_apps_img_demand_management@1x</title>
    <defs>
        <radialGradient cx="50%" cy="53.4207589%" fx="50%" fy="53.4207589%" r="59.3948282%" id="radialGradient-1">
            <stop stop-color="#F5F9FF" offset="0%"></stop>
            <stop stop-color="#E8F0FF" offset="100%"></stop>
        </radialGradient>
    </defs>
    <g id="Devops平台改版切图" stroke="none" stroke-width="1" fill="none" fill-rule="evenodd">
        <g id="画板" transform="translate(-31.000000, -440.000000)">
            <g id="编组-11备份" transform="translate(31.000000, 440.625000)">
                <g id="编组-4备份" fill="url(#radialGradient-1)">
                    <rect id="矩形备份-11" x="0" y="0" width="60" height="60" rx="4"></rect>
                </g>
                <g id="icon备份-5" transform="translate(15.000000, 14.000000)" fill-rule="nonzero">
                    <path d="M27.1153846,25.0961538 C28.230575,25.0961538 29.1346154,26.0001943 29.1346154,27.1153846 C29.1346154,28.230575 28.230575,29.1346154 27.1153846,29.1346154 L19.0384615,29.1346154 C17.9232712,29.1346154 17.0192308,28.230575 17.0192308,27.1153846 C17.0192308,26.0001943 17.9232712,25.0961538 19.0384615,25.0961538 L27.1153846,25.0961538 Z M7.93269231,0.865384615 C11.8358586,0.865384615 15,4.02952605 15,7.93269231 C15,11.8358586 11.8358586,15 7.93269231,15 C4.02952605,15 0.865384615,11.8358586 0.865384615,7.93269231 C0.865384615,4.02952605 4.02952605,0.865384615 7.93269231,0.865384615 Z M7.93269231,4.90384615 C6.25990677,4.90384615 4.90384615,6.25990677 4.90384615,7.93269231 C4.90384615,9.60547785 6.25990677,10.9615385 7.93269231,10.9615385 C9.60547785,10.9615385 10.9615385,9.60547785 10.9615385,7.93269231 C10.9615385,6.25990677 9.60547785,4.90384615 7.93269231,4.90384615 Z" id="形状" fill="#8787F2"></path>
                    <path d="M27.1153846,8.94230769 C28.230575,8.94230769 29.1346154,9.8463481 29.1346154,10.9615385 C29.1346154,12.0767288 28.230575,12.9807692 27.1153846,12.9807692 L19.0384615,12.9807692 C17.9232712,12.9807692 17.0192308,12.0767288 17.0192308,10.9615385 C17.0192308,9.8463481 17.9232712,8.94230769 19.0384615,8.94230769 L27.1153846,8.94230769 Z" id="路径" fill="#8787F2"></path>
                    <path d="M7.93269231,17.0192308 C11.8358586,17.0192308 15,20.1833722 15,24.0865385 C15,27.9897047 11.8358586,31.1538462 7.93269231,31.1538462 C4.02952605,31.1538462 0.865384615,27.9897047 0.865384615,24.0865385 C0.865384615,20.1833722 4.02952605,17.0192308 7.93269231,17.0192308 Z M7.93269231,21.0576923 C6.25990677,21.0576923 4.90384615,22.4137529 4.90384615,24.0865385 C4.90384615,25.759324 6.25990677,27.1153846 7.93269231,27.1153846 C9.60547785,27.1153846 10.9615385,25.759324 10.9615385,24.0865385 C10.9615385,22.4137529 9.60547785,21.0576923 7.93269231,21.0576923 Z" id="形状结合" fill="#8787F2"></path>
                    <path d="M27.1153846,19.0384615 C28.230575,19.0384615 29.1346154,19.9425019 29.1346154,21.0576923 C29.1346154,22.1728827 28.230575,23.0769231 27.1153846,23.0769231 L19.0384615,23.0769231 C17.9232712,23.0769231 17.0192308,22.1728827 17.0192308,21.0576923 C17.0192308,19.9425019 17.9232712,19.0384615 19.0384615,19.0384615 L27.1153846,19.0384615 Z" id="路径" fill="#C0C0FC"></path>
                    <path d="M27.1153846,2.88461538 C28.230575,2.88461538 29.1346154,3.78865579 29.1346154,4.90384615 C29.1346154,6.01903651 28.230575,6.92307692 27.1153846,6.92307692 L19.0384615,6.92307692 C17.9232712,6.92307692 17.0192308,6.01903651 17.0192308,4.90384615 C17.0192308,3.78865579 17.9232712,2.88461538 19.0384615,2.88461538 L27.1153846,2.88461538 Z" id="路径" fill="#C0C0FC"></path>
                </g>
            </g>
        </g>
    </g>
</svg>