<?xml version="1.0" encoding="UTF-8"?>
<svg width="61px" height="61px" viewBox="0 0 61 61" version="1.1" xmlns="http://www.w3.org/2000/svg" xmlns:xlink="http://www.w3.org/1999/xlink">
    <title>devops_apps_img_cd@1x</title>
    <defs>
        <radialGradient cx="50%" cy="50%" fx="50%" fy="50%" r="64.9256977%" id="radialGradient-1">
            <stop stop-color="#FFFDF5" offset="0%"></stop>
            <stop stop-color="#FFF6E1" offset="99.9644886%"></stop>
        </radialGradient>
        <linearGradient x1="124.990987%" y1="16.54025%" x2="97.1119829%" y2="100%" id="linearGradient-2">
            <stop stop-color="#FFD838" offset="0%"></stop>
            <stop stop-color="#FFB01A" offset="100%"></stop>
        </linearGradient>
        <linearGradient x1="129.588019%" y1="16.6200017%" x2="100%" y2="99.8808245%" id="linearGradient-3">
            <stop stop-color="#FFD838" offset="0%"></stop>
            <stop stop-color="#FFB01A" offset="100%"></stop>
        </linearGradient>
    </defs>
    <g id="切图" stroke="none" stroke-width="1" fill="none" fill-rule="evenodd">
        <g id="DeVops平台改版图标" transform="translate(-223.000000, -907.000000)">
            <g id="编组-14" transform="translate(223.177437, 907.597182)">
                <g id="编组-4备份" fill="url(#radialGradient-1)">
                    <rect id="矩形备份-11" x="0" y="0" width="60" height="60" rx="4"></rect>
                </g>
                <g id="编组-108备份-7" transform="translate(8.000000, 18.500000)" fill-rule="nonzero">
                    <path d="M10.8767085,0.36 C13.4647551,0.36 15.9198011,1.27033586 17.8630901,2.90019603 L18.1260614,3.13390961 L18.432965,3.43086848 L18.7845256,3.79180955 L19.1814678,4.2174697 L19.8635568,4.97892017 L19.9690516,5.09923241 C19.7277588,5.26329726 19.4444303,5.47569466 19.1190658,5.7364246 C17.1833995,7.28756548 15.239325,7.47608884 13.2868422,6.3019947 L13.2868422,6.3019947 L13.2817629,6.31406318 C12.5444975,5.95296059 11.7269904,5.76 10.8767085,5.76 C7.8520059,5.76 5.4,8.2120059 5.4,11.2367085 C5.4,14.261411 7.8520059,16.7134169 10.8767085,16.7134169 C12.1241833,16.7134169 13.3011228,16.2982174 14.2583568,15.5451508 C16.4460134,14.1464223 18.7321365,14.3545313 21.1158308,16.1666397 L21.027,16.101 L20.3612137,16.9000115 L19.7904725,17.5624786 L19.2746244,18.1435908 L18.8125286,18.6444764 L18.4030439,19.0662638 C18.3391173,19.1300329 18.2773353,19.1905532 18.2176742,19.2478483 L17.8849669,19.5531041 L17.7551215,19.6626014 C15.8280889,21.2371354 13.4160017,22.1134169 10.8767085,22.1134169 C4.86966825,22.1134169 1.13686838e-13,17.2437487 1.13686838e-13,11.2367085 C1.13686838e-13,5.22966825 4.86966825,0.36 10.8767085,0.36 Z" id="形状结合" fill="url(#linearGradient-2)"></path>
                    <path d="M40.7239298,3.75266396 C44.7434243,8.21676481 44.3829996,15.0940776 39.9188987,19.1135721 C38.0318361,20.8126909 35.6529592,21.7754882 33.167326,21.8948179 C32.8947229,21.9079049 32.5838019,21.906387 32.2315578,21.8905376 L31.9595798,21.8759677 L31.2099905,21.8161987 L31.0066693,21.7960801 L31.0066693,21.7960801 L30.796841,21.7739035 L29.8910813,21.664742 L28.875706,21.5231531 L28.3104356,21.4329049 C28.3108715,21.2598981 28.3166267,21.0915105 28.3277012,20.927742 L28.3940189,20.3361781 C28.7474312,18.1267547 30.2212245,16.8902259 32.815399,16.6265918 L32.815399,16.6265918 C34.0695862,16.6102057 35.2769824,16.169925 36.2594152,15.345566 C38.5764718,13.4013246 38.8786983,9.94686012 36.9344569,7.62980353 C34.9902156,5.31274694 31.5357511,5.01052046 29.2186945,6.95476179 C28.2889946,7.73487268 27.6631347,8.77320756 27.4004606,9.92575856 L27.3463176,10.1936938 L27.3159325,10.4472746 L27.2992518,10.7335651 L27.2820111,11.8476733 L27.3176794,15.7418333 L27.3191572,15.7430979 L27.3380248,17.6881989 C27.0426318,19.973843 25.1772762,21.1836978 21.741958,21.3177632 L21.811958,21.3138013 L21.7870826,10.5086657 L21.8123126,10.0173083 L21.8708512,9.51016817 C22.2244071,6.99863188 23.4397282,4.67937407 25.3630217,2.94763287 C29.8271225,-1.07186159 36.7044353,-0.711436892 40.7239298,3.75266396 Z" id="形状结合" fill="url(#linearGradient-3)"></path>
                </g>
            </g>
        </g>
    </g>
</svg>