<?xml version="1.0" standalone="no"?><!DOCTYPE svg PUBLIC "-//W3C//DTD SVG 1.1//EN" "http://www.w3.org/Graphics/SVG/1.1/DTD/svg11.dtd"><svg class="icon" width="200px" height="200.00px" viewBox="0 0 1024 1024" version="1.1" xmlns="http://www.w3.org/2000/svg"><path d="M299.220886 302.630551s44.669974 1.875457 145.43316-24.210444 163.33525-47.568408 163.33525-47.568407l111.50444 54.729243s-2.898433 49.784857 2.898433 51.148826 83.884074 12.787206 85.248043 76.723238-68.198434 65.300001-68.198434 65.300001l-8.524804 95.136815S733.644911 630.835516 693.919323 660.672331a194.024545 194.024545 0 0 1-80.98564 35.463185H402.541513s-69.562403-11.252742-87.97598-48.250392a622.651704 622.651704 0 0 1-31.200783-76.723238l4.262402-90.874414s-79.621672-18.413577-73.824805-73.824805 78.087207-59.67363 78.087207-59.673629z" fill="#FFECE3" /><path d="M443.801566 695.794524h133.157443l29.836814 92.749871 82.008617 12.787206v46.886424s-60.696606 29.836815-175.781463 35.122193a284.557966 284.557966 0 0 1-195.047522-72.460836l105.537077-19.095562z" fill="#FFECE3" /><path d="M232.045428 838.329252c-42.624021 49.784857-51.148826 167.597652-51.148826 167.597651h656.409929s9.888773-103.66162-46.886424-159.072847a185.499741 185.499741 0 0 0-105.025588-43.306006 254.380159 254.380159 0 0 1-162.823762 55.411228 339.28721 339.28721 0 0 1-190.785119-52.171802 97.694257 97.694257 0 0 0-99.74021 31.541776z" fill="#5BF499" /><path d="M685.394519 525.639431m-46.886424 0a46.886423 46.886423 0 1 0 93.772847 0 46.886423 46.886423 0 1 0-93.772847 0Z" fill="#EC7094" /><path d="M338.605481 525.639431m-46.886423 0a46.886423 46.886423 0 1 0 93.772847 0 46.886423 46.886423 0 1 0-93.772847 0Z" fill="#EC7094" /><path d="M728.01854 348.153006l41.260053-1.363968 24.039948-116.619323s9.888773-79.621672-51.148826-124.97363-109.458487-43.98799-109.458487-43.98799S494.950391-14.151175 387.026369 25.574413a281.318541 281.318541 0 0 0-150.548043 136.396868l-41.260053 143.557704s167.597652 21.312011 260.006531-9.888773a554.112277 554.112277 0 0 0 146.285641-72.460836l112.868408 62.742559z" fill="#CE66FF" /><path d="M423.17154 348.664495a47.05692 47.05692 0 0 1 27.620365 7.331331 12.787206 12.787206 0 0 0 17.049609-19.777546 70.414883 70.414883 0 0 0-43.98799-13.128198 69.732899 69.732899 0 0 0-43.817494 13.298694 12.61671 12.61671 0 0 0-1.534465 17.049609 12.957702 12.957702 0 0 0 17.902089 1.875457 46.374935 46.374935 0 0 1 26.767886-6.649347zM573.037599 355.995826a55.411228 55.411228 0 0 1 55.240731 0 12.787206 12.787206 0 0 0 17.049609-19.777546 79.451176 79.451176 0 0 0-87.805484 0 12.61671 12.61671 0 0 0-1.534465 17.049609 12.957702 12.957702 0 0 0 17.049609 2.727937z" fill="#4C4497" /><path d="M850.264233 924.941263a156.34491 156.34491 0 0 0-139.465798-136.396868l-77.746214-8.013316a27.790862 27.790862 0 0 1-24.210445-22.67598l-10.059269-37.168146h2.21645A149.184075 149.184075 0 0 0 750.694519 566.047003l-2.386945-58.309661a87.634988 87.634988 0 0 0 47.9094-152.253004l11.934726-82.690601c1.022977-4.432898 24.892428-108.606006-51.148825-181.578331a152.253004 152.253004 0 0 0-115.596346-44.840471c-19.266058-13.980679-82.520105-51.148826-192.660577-45.181462a247.730812 247.730812 0 0 0-228.976242 172.371542L171.007829 305.187993a17.049609 17.049609 0 0 0 17.049609 23.016971c4.262402 0 44.84047 0 96.500784-2.386945v6.99034a87.805484 87.805484 0 0 0-7.501828 174.928983L273.305481 566.047003a149.184075 149.184075 0 0 0 149.184074 155.151438h2.216449l-10.400261 38.191123a27.279374 27.279374 0 0 1-24.039948 21.653003l-77.746215 8.013316a156.34491 156.34491 0 0 0-139.465798 136.396868l-10.229765 78.769192a17.049609 17.049609 0 0 0 15.344648 18.754569h2.216449a17.049609 17.049609 0 0 0 17.049609-14.833159l10.229765-78.769192a122.245693 122.245693 0 0 1 109.117494-106.389557l19.436554-2.045953A346.618541 346.618541 0 0 0 512 865.949617c11.76423 0 23.698956 0 35.463186-1.534464a8.524804 8.524804 0 0 0 7.672324-9.206789 8.6953 8.6953 0 0 0-9.036293-7.84282c-11.252742 1.022977-22.675979 1.534465-34.099217 1.534465A342.185643 342.185643 0 0 1 366.225847 818.38121l28.131854-2.898434A60.867102 60.867102 0 0 0 448.063968 767.232384l12.787206-46.204439h102.297652l12.275718 45.181462a61.378591 61.378591 0 0 0 54.217755 48.761881l27.961358 2.898433a283.705486 283.705486 0 0 1-27.790862 11.593734 8.524804 8.524804 0 0 0 2.898433 17.049609 8.524804 8.524804 0 0 0 2.898434 0 288.649872 288.649872 0 0 0 52.342298-24.551437l19.436554 2.045953a122.245693 122.245693 0 0 1 109.117494 106.389558l10.229766 78.769191a17.049609 17.049609 0 0 0 17.049608 14.83316h2.216449a17.049609 17.049609 0 0 0 14.662664-19.095562z m-104.002612-451.132642l-2.557441-60.185118 15.856136 8.6953a8.524804 8.524804 0 0 0 11.593734-3.409921 8.524804 8.524804 0 0 0-3.409922-11.593734l-24.892428-13.639687-1.193473-26.767885a53.876763 53.876763 0 0 1 4.432898 106.730549zM212.097386 293.764755l40.407572-110.822455A210.392169 210.392169 0 0 1 450.109921 34.099217c116.789818-6.649347 173.906007 41.260053 174.417495 41.601045a17.049609 17.049609 0 0 0 14.492168 3.92141A115.084858 115.084858 0 0 1 733.644911 115.42585c62.231071 59.332638 42.283029 148.161098 41.942037 150.377547l-10.91175 71.267364a87.1235 87.1235 0 0 0-23.528459-4.432899l-2.045953-47.568407a17.049609 17.049609 0 0 0-12.787207-15.856136 306.892954 306.892954 0 0 1-58.309661-22.334987A170.496085 170.496085 0 0 1 621.799479 204.595302a17.049609 17.049609 0 0 0-11.252742-6.819843 17.049609 17.049609 0 0 0-12.61671 3.239426 500.917499 500.917499 0 0 1-134.350915 68.198434c-63.765536 19.60705-196.581986 23.698956-251.481726 24.551436z m21.312011 126.849088a54.047259 54.047259 0 0 1 48.932376-53.706267l-1.193473 26.597389-25.062924 13.639687a8.524804 8.524804 0 0 0 4.091906 16.026632 8.354308 8.354308 0 0 0 4.091906-1.022977l16.026632-8.6953-2.557441 60.355614a54.217755 54.217755 0 0 1-44.158486-53.194778z m106.560053 231.022195A114.232377 114.232377 0 0 1 307.404698 567.410972L318.486943 323.942562a807.298964 807.298964 0 0 0 154.63995-20.971018A508.24883 508.24883 0 0 0 604.920367 238.694519a181.748827 181.748827 0 0 0 46.374935 38.873108 318.657183 318.657183 0 0 0 53.535771 21.823499L716.595302 567.410972a115.084858 115.084858 0 0 1-115.084857 119.34726H423.17154a114.232377 114.232377 0 0 1-83.031594-35.122194z" fill="#4C4497" /><path d="M597.248043 839.011236l-11.423238 2.557441a8.524804 8.524804 0 0 0 1.704961 17.049609h1.704961l11.934726-2.727938a8.524804 8.524804 0 1 0-3.92141-17.049608z" fill="#4C4497" /><path d="M428.968406 420.102354m-33.928721 0a33.928721 33.928721 0 1 0 67.857442 0 33.928721 33.928721 0 1 0-67.857442 0Z" fill="#4C4497" /><path d="M595.20209 420.102354m-33.928721 0a33.928721 33.928721 0 1 0 67.857442 0 33.928721 33.928721 0 1 0-67.857442 0Z" fill="#4C4497" /><path d="M566.047259 550.361363h-108.094518a8.524804 8.524804 0 0 0 0 17.049609h107.924022a8.524804 8.524804 0 0 0 0-17.049609z" fill="#4C4497" /></svg>