<?xml version="1.0" standalone="no"?><!DOCTYPE svg PUBLIC "-//W3C//DTD SVG 1.1//EN" "http://www.w3.org/Graphics/SVG/1.1/DTD/svg11.dtd"><svg class="icon" width="200px" height="200.00px" viewBox="0 0 1024 1024" version="1.1" xmlns="http://www.w3.org/2000/svg"><path d="M443.870263 695.443661h133.023312l29.80676 92.656442 81.926009 12.774326v46.839195s-60.635466 29.80676-175.604398 35.086814a284.271329 284.271329 0 0 1-194.851048-72.387846l105.430768-19.076326z" fill="#FFECE3" /><path d="M232.327429 837.834812c-42.581086 49.734708-51.097303 167.428829-51.097303 167.428829h655.748721s9.878812-103.557201-46.839195-158.912612a185.312885 185.312885 0 0 0-104.919795-43.262383 254.12392 254.12392 0 0 1-162.659748 55.355411 338.945443 338.945443 0 0 1-190.59294-52.119249 97.595849 97.595849 0 0 0-99.63974 31.510004z" fill="#5BF499" /><path d="M758.289 352.921407a56.888331 56.888331 0 0 0-17.032434 2.554865V332.482486S678.066235 289.9014 521.878812 289.9014s-229.256566 39.174599-229.256566 39.174599v26.229949a57.399304 57.399304 0 1 0-1.021946 103.897849v30.828706s23.504759 212.905429 227.893971 212.905429c161.808126 0 223.635863-200.131103 223.635863-200.131103v-37.471356a56.888331 56.888331 0 0 0 17.032434 2.554865 57.399304 57.399304 0 0 0 0-114.968931z" fill="#FFECE3" /><path d="M685.219857 525.459966m-46.839194 0a46.839194 46.839194 0 1 0 93.678388 0 46.839194 46.839194 0 1 0-93.678388 0Z" fill="#EC7094" /><path d="M338.780143 525.459966m-46.839194 0a46.839194 46.839194 0 1 0 93.678388 0 46.839194 46.839194 0 1 0-93.678388 0Z" fill="#EC7094" /><path d="M262.134189 308.296429l21.290543-136.259475s44.114005-138.984664 237.091485-138.984664S750.45408 191.964903 750.45408 191.964903l14.136921 127.743257s17.032434 60.976115 7.153622 82.266658-19.927948 22.653138-19.927948 22.653137S683.686938 358.031137 503.483783 358.031137s-214.268024 58.250925-214.268024 58.250925-12.774326 19.927948-31.169355-5.620703 4.087784-102.36493 4.087785-102.36493z" fill="#FFF385" /><path d="M849.582848 924.359578a156.017098 156.017098 0 0 0-139.154988-136.259475l-77.497576-8.005244a27.422219 27.422219 0 0 1-24.015733-22.142164l-13.625947-58.080601a243.223162 243.223162 0 0 0 158.571963-204.389212 87.546712 87.546712 0 0 0 32.53195-165.555262l-1.703244-12.94465-9.708487-83.969901A245.267054 245.267054 0 0 0 546.064869 17.382451a42.070113 42.070113 0 0 0-68.129738 0 245.267054 245.267054 0 0 0-227.553322 216.311916l-9.708488 83.969901-1.703243 12.94465a87.546712 87.546712 0 0 0 32.53195 165.555261 243.223162 243.223162 0 0 0 158.571963 204.389212l-13.796272 58.42125a27.251895 27.251895 0 0 1-23.845408 21.631191l-77.497576 8.005245a156.017098 156.017098 0 0 0-139.154988 136.259474l-10.219461 78.689847a17.032434 17.032434 0 0 0 13.455623 18.735677h2.214217a17.032434 17.032434 0 0 0 17.032434-14.818218l10.219461-78.689846a122.122554 122.122554 0 0 1 108.837255-106.112066l19.416975-2.043892A345.928741 345.928741 0 0 0 512 865.59768c11.922704 0 23.845408 0 35.427463-1.532919a8.516217 8.516217 0 0 0-1.532919-17.032435c-11.071082 1.021946-22.482813 1.532919-34.064868 1.532919a341.500308 341.500308 0 0 1-145.116341-30.658381l28.103517-2.895514A60.976115 60.976115 0 0 0 448.298696 766.809561l13.285298-56.207034a240.838621 240.838621 0 0 0 100.832012 0l13.114974 56.207034a61.146439 61.146439 0 0 0 53.822492 48.542437l27.762868 2.895514a284.271329 284.271329 0 0 1-27.592543 11.582056 8.516217 8.516217 0 0 0 2.895514 17.032434 8.516217 8.516217 0 0 0 2.895513 0 287.507491 287.507491 0 0 0 52.289574-24.526706l19.416975 2.043893a122.122554 122.122554 0 0 1 108.837255 106.112065l10.219461 78.689847a17.032434 17.032434 0 0 0 17.032434 14.818218h2.214216a17.032434 17.032434 0 0 0 14.647894-19.076327z m-571.097522-524.598977a9.708488 9.708488 0 0 1-14.307245-9.878812l7.323947-53.652168c11.411731-8.686541 68.129737-43.432707 240.497972-43.432707s228.404944 34.064869 240.497972 43.603032l7.323947 53.481843a9.708488 9.708488 0 0 1-14.307245 9.878812A493.940595 493.940595 0 0 0 512 342.872271a493.940595 493.940595 0 0 0-233.514674 56.88833z m521.703463 9.367839a53.992817 53.992817 0 0 1-45.306276 53.141195V434.677091a43.603032 43.603032 0 0 0 38.663626-49.394059v-2.043892a53.822492 53.822492 0 0 1 6.64265 25.8893zM283.935705 238.804097A211.37251 211.37251 0 0 1 493.94562 51.447319h36.279085a211.37251 211.37251 0 0 1 209.83959 187.356778l6.472325 55.525736c-35.768112-16.180813-105.260444-35.257139-234.53662-35.257139s-198.768508 19.076326-234.53662 35.257139z m-60.124494 170.324343a53.822492 53.822492 0 0 1 6.812974-26.229949v2.043892a43.262383 43.262383 0 0 0 38.663626 49.39406v27.762868A53.992817 53.992817 0 0 1 223.811211 409.12844z m79.371144 63.53098V426.160874A459.875726 459.875726 0 0 1 512 376.937139 459.875726 459.875726 0 0 1 720.817645 426.160874v47.350168a208.817645 208.817645 0 0 1-417.63529 0z" fill="#4C4497" /><path d="M597.162172 838.686433l-11.241407 2.554866a8.516217 8.516217 0 0 0 1.703243 17.032434h1.703244l11.922704-2.72519a8.516217 8.516217 0 1 0-3.91746-17.032434zM559.520492 513.537262a8.516217 8.516217 0 0 0-8.516217 8.516218 39.004275 39.004275 0 0 1-78.00855 0 8.516217 8.516217 0 0 0-17.032434 0 56.036709 56.036709 0 0 0 112.073418 0 8.516217 8.516217 0 0 0-8.516217-8.516218zM465.671779 418.666603a8.516217 8.516217 0 0 0-1.021946-11.922704 66.767143 66.767143 0 0 0-41.218491-12.263352 66.256169 66.256169 0 0 0-41.048167 12.263352 8.516217 8.516217 0 0 0 10.900758 13.114975 50.075357 50.075357 0 0 1 30.147409-8.345893 51.097303 51.097303 0 0 1 30.317733 8.345893 8.516217 8.516217 0 0 0 11.922704-1.192271zM600.568658 394.480547a66.256169 66.256169 0 0 0-41.048166 12.263352 8.516217 8.516217 0 0 0-1.021946 11.922704 8.516217 8.516217 0 0 0 11.922704 1.192271 49.905033 49.905033 0 0 1 30.147408-8.345893 51.097303 51.097303 0 0 1 30.317734 8.345893 8.516217 8.516217 0 0 0 10.900757-13.114975 66.767143 66.767143 0 0 0-41.218491-12.263352z" fill="#4C4497" /></svg>