<?xml version="1.0" standalone="no"?><!DOCTYPE svg PUBLIC "-//W3C//DTD SVG 1.1//EN" "http://www.w3.org/Graphics/SVG/1.1/DTD/svg11.dtd"><svg class="icon" width="200px" height="200.00px" viewBox="0 0 1024 1024" version="1.1" xmlns="http://www.w3.org/2000/svg"><path d="M265.867491 265.613058h501.073614S755.591568 18.633569 508.612078 18.633569 265.867491 265.613058 265.867491 265.613058z" fill="#6C9DFF" /><path d="M300.593688 289.667302l252.400164-43.704189 165.161181 43.704189s-2.879733 49.463656 2.879734 50.818825 83.342873 12.704706 84.698041 76.228237-67.758433 64.8787-67.758433 64.8787l-8.469804 94.523015S732.214908 632.69437 692.745621 662.338685a192.772743 192.772743 0 0 1-80.46314 35.234385H403.247715s-69.113602-11.180141-87.408379-47.939091a618.634496 618.634496 0 0 1-30.999483-76.228238l4.234902-90.288112s-79.107971-18.294777-73.348504-73.348504 77.583406-59.288629 77.583406-59.288629z" fill="#FFECE3" /><path d="M444.241567 697.234278h132.298341l29.644314 92.151469 81.479516 12.704707v46.583922s-60.305006 29.644315-174.647362 34.895594a282.722063 282.722063 0 0 1-193.789119-71.993336l104.856176-18.972361z" fill="#FFECE3" /><path d="M233.851632 838.849404c-42.349021 49.463656-50.818825 166.51635-50.818825 166.516349h652.17492s9.824973-102.992819-46.583923-158.046545a184.302938 184.302938 0 0 0-104.347987-43.026605 252.738956 252.738956 0 0 1-161.77326 55.053727 337.098205 337.098205 0 0 1-189.554217-51.835202 97.063956 97.063956 0 0 0-99.096708 31.338276z" fill="#5BF499" /><path d="M684.275817 528.176987m-46.583923 0a46.583923 46.583923 0 1 0 93.167845 0 46.583923 46.583923 0 1 0-93.167845 0Z" fill="#EC7094" /><path d="M339.724183 528.176987m-46.583922 0a46.583923 46.583923 0 1 0 93.167845 0 46.583923 46.583923 0 1 0-93.167845 0Z" fill="#EC7094" /><path d="M249.436071 347.939555V285.4324S321.429406 226.143771 543.846464 226.143771s236.13814 67.758433 236.138139 67.758433l-6.267655 49.802449-55.053727 2.202149s-75.211861-47.600299-209.542954-47.6003-203.2753 44.55117-203.2753 44.55117z" fill="#FFF385" /><path d="M423.914037 354.715398a46.753319 46.753319 0 0 1 27.442165 7.284032 12.704706 12.704706 0 0 0 16.939609-1.693961 12.704706 12.704706 0 0 0-1.693961-17.955985 69.791186 69.791186 0 0 0-43.70419-13.043498 69.113602 69.113602 0 0 0-43.534793 13.212894 12.53531 12.53531 0 0 0-1.524565 16.939608 12.704706 12.704706 0 0 0 16.939608 1.863357 46.075735 46.075735 0 0 1 29.136127-6.606447zM572.643798 361.660637a46.075735 46.075735 0 0 1 27.442165-7.284031 46.753319 46.753319 0 0 1 27.442166 7.284031 12.704706 12.704706 0 0 0 16.939608-1.69396 12.704706 12.704706 0 0 0-1.693961-17.955985 78.938575 78.938575 0 0 0-87.238983 0 12.53531 12.53531 0 0 0-1.524564 16.939608 12.874102 12.874102 0 0 0 18.633569 2.710337z" fill="#4C4497" /><path d="M847.743037 924.902614a155.166812 155.166812 0 0 0-138.3966-135.516867l-77.075218-7.961616a27.272769 27.272769 0 0 1-23.884848-22.02149l-10.163765-42.010229h0.846981a148.221573 148.221573 0 0 0 148.052176-154.997416l-2.879733-63.015343a86.900191 86.900191 0 0 0 49.29426-150.93191v-60.305006a16.939608 16.939608 0 0 0-4.404298-11.349537 67.758433 67.758433 0 0 0-6.437051-5.759467 271.033733 271.033733 0 0 0-542.067466 0 67.758433 67.758433 0 0 0-6.437051 5.759467 16.939608 16.939608 0 0 0-4.404298 11.349537v60.13561a86.900191 86.900191 0 0 0 49.29426 150.93191l-2.879734 63.015343A148.221573 148.221573 0 0 0 424.930413 717.392412h0.846981l-10.163765 43.196001a27.103373 27.103373 0 0 1-23.715452 21.513303l-77.075218 7.961616a155.166812 155.166812 0 0 0-138.3966 135.516866l-10.163765 78.260991a16.939608 16.939608 0 0 0 14.568064 18.464173h2.202149a16.939608 16.939608 0 0 0 16.939608-14.73746l10.163765-78.26099a121.456992 121.456992 0 0 1 108.244097-105.53376l19.311153-2.032753A344.043445 344.043445 0 0 0 512 866.460965c11.857726 0 23.715452 0 35.234385-1.524565a8.469804 8.469804 0 0 0 7.622824-9.147388 8.6392 8.6392 0 0 0-9.147388-7.622824c-11.010745 1.016376-22.360283 1.524565-33.879217 1.524565A339.639147 339.639147 0 0 1 367.505141 819.030062l27.950354-2.879734A60.643798 60.643798 0 0 0 448.645865 768.211237l11.857726-50.818825H562.818825l11.857726 50.818825a60.813194 60.813194 0 0 0 53.529162 48.277884l27.611562 2.879733a282.722063 282.722063 0 0 1-27.442166 11.518934 8.469804 8.469804 0 0 0 2.879734 16.939608 8.469804 8.469804 0 0 0 2.879733 0 285.940588 285.940588 0 0 0 52.004597-24.393036l19.311154 2.032753a121.456992 121.456992 0 0 1 108.244097 105.53376l10.163765 78.26099a16.939608 16.939608 0 0 0 16.939608 14.737459h2.202149a16.939608 16.939608 0 0 0 14.568064-18.972361z m-105.025572-459.402178l-2.879733-60.98259 16.939608 9.655577a8.469804 8.469804 0 0 0 11.518934-3.387921 8.469804 8.469804 0 0 0-3.387922-11.518934l-26.764581-14.568063-1.185773-25.578809a53.529162 53.529162 0 0 1 4.912487 106.211344zM512 39.80808a237.154516 237.154516 0 0 1 235.460556 210.051143 302.202612 302.202612 0 0 0-30.999484-12.365914 161.773259 161.773259 0 0 0-22.02149-67.758434 8.469804 8.469804 0 1 0-14.568064 8.808597A144.664255 144.664255 0 0 1 698.335691 232.072634c-7.961616-2.371545-16.939608-4.573694-25.748204-6.606447a112.817791 112.817791 0 0 0-9.994369-33.201633 8.469804 8.469804 0 1 0-15.076252 7.622824 95.369995 95.369995 0 0 1 7.79222 21.682699A775.156476 775.156476 0 0 0 512 209.204163c-123.489745 0-195.821872 21.343906-235.460556 39.977475A237.154516 237.154516 0 0 1 512 39.80808zM264.342926 295.934957C280.943743 283.399647 346.500027 243.083379 512 243.083379s231.225653 39.638683 247.82647 52.004598v33.879216a86.392002 86.392002 0 0 0-25.070621-4.065506 16.939608 16.939608 0 0 0-5.420674-6.437051c-2.202149-1.524565-56.070104-36.75895-217.165779-36.75895s-214.963629 35.234385-217.165778 36.75895a16.939608 16.939608 0 0 0-5.420675 6.437051 86.392002 86.392002 0 0 0-25.07062 4.065506zM235.714988 412.479462a53.698558 53.698558 0 0 1 50.818825-53.359766l-1.185772 25.578809-27.442166 14.737459a8.469804 8.469804 0 0 0 4.065506 15.923232 8.300408 8.300408 0 0 0 4.065506-1.016377l16.939609-9.655576-2.879734 60.982589A53.698558 53.698558 0 0 1 235.714988 412.479462zM342.603917 648.109414a113.32598 113.32598 0 0 1-31.507672-84.698042l10.163765-220.214908c18.294777-8.131012 73.856692-27.442165 191.248178-27.442165s173.122797 19.311153 191.248178 27.442165l10.163765 220.214908A114.342356 114.342356 0 0 1 599.069587 683.513195H424.930413A113.32598 113.32598 0 0 1 342.603917 648.109414z" fill="#4C4497" /><path d="M596.698042 839.696384l-11.180142 2.540941a8.469804 8.469804 0 0 0 1.693961 16.939609h1.693961l11.857726-2.710338a8.469804 8.469804 0 0 0 6.267655-10.163765 8.300408 8.300408 0 0 0-10.333161-6.606447zM600.932944 495.483543a8.469804 8.469804 0 0 0-8.469805 8.469804c0 35.234385-36.081366 63.692927-80.463139 63.692928s-80.463139-28.627938-80.463139-63.692928a8.469804 8.469804 0 0 0-16.939609 0c0 44.55117 43.704189 80.632536 97.402748 80.632536s97.402748-36.589554 97.402748-80.632536a8.469804 8.469804 0 0 0-8.469804-8.469804z" fill="#4C4497" /><path d="M430.181692 410.954898m-33.709821 0a33.709821 33.709821 0 1 0 67.419641 0 33.709821 33.709821 0 1 0-67.419641 0Z" fill="#4C4497" /><path d="M593.818308 410.954898m-33.70982 0a33.709821 33.709821 0 1 0 67.419641 0 33.709821 33.709821 0 1 0-67.419641 0Z" fill="#4C4497" /></svg>