<?xml version="1.0" standalone="no"?><!DOCTYPE svg PUBLIC "-//W3C//DTD SVG 1.1//EN" "http://www.w3.org/Graphics/SVG/1.1/DTD/svg11.dtd"><svg class="icon" width="200px" height="200.00px" viewBox="0 0 1024 1024" version="1.1" xmlns="http://www.w3.org/2000/svg"><path d="M205.311352 282.494321S215.193542 14.141754 513.363061 14.141754s309.585152 265.626446 309.585151 265.626446 11.415633 22.660883 26.920448 51.114774-29.816952 36.97302-25.557387 68.153033 35.439577 22.660883 35.439577 51.114775-38.336081 31.180013-34.076516 58.270843 35.439577 22.660883 35.439577 48.218271-29.816952 25.557387-28.453891 52.477835 45.492149 31.180013 29.816951 59.633904-34.076516 42.595646-59.633903 43.958706-43.958706-19.934762-62.530408-18.401319-46.85521 49.751714-66.789972 49.751714-52.477835-32.713456-63.893468-31.180012-184.524336 0-184.524337 0a631.267467 631.267467 0 0 1-73.775658 26.920448c-17.038258 2.896504-43.958706-42.595646-63.893468-42.595646s-42.595646 15.675198-65.256529 11.415633S159.819203 667.388574 164.078767 647.453812s28.453891-24.194327 28.453892-48.218271-34.076516-34.076516-34.076517-43.958706 31.180013-34.076516 34.076517-58.270843-24.194327-38.336081-22.660884-55.374339 26.920448-24.194327 26.920448-45.49215-25.557387-34.076516-25.557387-56.737399 34.076516-56.907782 34.076516-56.907783z" fill="#6C9DFF" /><path d="M443.846967 695.331318h133.068797l29.816952 92.688124 81.954022 12.778694v46.85521s-60.656199 29.816952-175.664443 35.098812a284.36853 284.36853 0 0 1-194.917673-72.412597l105.466818-19.08285z" fill="#FFECE3" /><path d="M232.2318 837.771156c-42.595646 49.751714-51.114775 167.486078-51.114774 167.486078h655.972941s9.88219-103.59261-46.85521-158.966949a185.376249 185.376249 0 0 0-104.955671-43.277176 254.210813 254.210813 0 0 1-162.715366 55.37434 339.061338 339.061338 0 0 1-190.658109-52.13707 97.62922 97.62922 0 0 0-99.673811 31.520777z" fill="#FFF385" /><path d="M292.717617 289.65039H742.016486v212.978227s-61.678495 200.199534-223.541948 200.199534c-204.459099 0-227.801512-212.978228-227.801512-212.978227z" fill="#FFECE3" /><path d="M685.279086 525.289501m-46.85521 0a46.85521 46.85521 0 1 0 93.71042 0 46.85521 46.85521 0 1 0-93.71042 0Z" fill="#EC7094" /><path d="M338.720914 525.289501m-46.85521 0a46.85521 46.85521 0 1 0 93.71042 0 46.85521 46.85521 0 1 0-93.71042 0Z" fill="#EC7094" /><path d="M429.705213 441.46127m-33.906134 0a33.906134 33.906134 0 1 0 67.812268 0 33.906134 33.906134 0 1 0-67.812268 0Z" fill="#4C4497" /><path d="M594.46517 441.46127m-33.906134 0a33.906134 33.906134 0 1 0 67.812268 0 33.906134 33.906134 0 1 0-67.812268 0Z" fill="#4C4497" /><path d="M597.191291 838.623069l-11.415633 2.555739a8.519129 8.519129 0 0 0 1.703826 17.038258h1.703826l11.92678-2.726121a8.519129 8.519129 0 1 0-3.918799-17.038258z" fill="#4C4497" /><path d="M852.765164 619.340686c-6.815303-5.28186-7.667216-7.496834-7.667216-10.904485s2.044591-6.815303 10.222955-13.630607a46.003297 46.003297 0 0 0-1.703826-80.420579c-8.519129-6.474538-10.734103-8.689512-10.734103-13.119458s2.044591-6.815303 10.222955-13.630607a46.003297 46.003297 0 0 0-1.703825-80.250196c-8.519129-6.474538-10.734103-8.689512-10.734103-13.119459s2.044591-6.815303 10.222955-13.460224A49.410949 49.410949 0 0 0 873.551839 340.765164a49.410949 49.410949 0 0 0-24.364709-39.699141c-8.519129-6.474538-10.734103-8.689512-10.734103-13.971372A295.273015 295.273015 0 0 0 544.883838 0h-65.767676a295.443397 295.443397 0 0 0-293.398807 287.435416c0 4.429947-2.214974 6.644921-10.734102 13.119459A49.410949 49.410949 0 0 0 150.448161 340.765164a49.410949 49.410949 0 0 0 22.660883 40.551055c8.178364 6.815303 10.393338 9.030277 10.222955 13.460224s-2.214974 6.644921-10.734103 13.119459a46.003297 46.003297 0 0 0-1.703825 80.250196c8.348747 6.815303 10.393338 9.030277 10.222955 13.630606s-2.214974 6.644921-10.734103 13.119459a46.003297 46.003297 0 0 0-1.703826 80.420579c8.348747 6.815303 10.393338 9.200659 10.222955 13.630606s0 5.452243-7.667216 10.904486a54.522426 54.522426 0 0 0-11.415633 75.138718 85.191291 85.191291 0 0 0 52.648218 37.143403 82.805935 82.805935 0 0 0 48.729418-10.904485 63.382321 63.382321 0 0 1 24.705475-7.837599c4.770712 0.851913 13.119459 9.88219 19.253231 17.038258a71.049537 71.049537 0 0 0 39.869525 27.261214h4.941094a79.398283 79.398283 0 0 0 40.721438-17.038259c7.496834-4.770712 17.890171-11.586016 22.660883-11.074867a17.038258 17.038258 0 0 1 7.326451 3.407651l-5.452243 26.238918a27.261213 27.261213 0 0 1-23.853561 21.638588l-77.524075 8.007981a156.070445 156.070445 0 0 0-139.20257 136.306066l-10.222955 78.716753a17.038258 17.038258 0 0 0 14.48252 18.401319h2.214974a17.038258 17.038258 0 0 0 17.038258-14.823285l10.222955-78.716753a122.164311 122.164311 0 0 1 108.87447-106.148349l19.423614-2.044591A346.047024 346.047024 0 0 0 512 865.543517c11.926781 0 23.853561 0 35.439577-1.533443a8.519129 8.519129 0 0 0 7.667216-9.20066 8.689512 8.689512 0 0 0-9.200659-7.667216c-11.074868 1.022295-22.490501 1.533443-34.076517 1.533443A341.78746 341.78746 0 0 1 366.663657 817.836394l28.113127-2.896504A61.167347 61.167347 0 0 0 448.447297 766.721619l11.586015-56.226252a238.535615 238.535615 0 0 0 103.933376 0l11.586015 56.226252a61.167347 61.167347 0 0 0 53.840896 48.559036l27.772361 2.896504a284.36853 284.36853 0 0 1-27.601978 11.586016 8.519129 8.519129 0 0 0 2.896504 17.038258 8.519129 8.519129 0 0 0 2.896503 0 287.605799 287.605799 0 0 0 52.307453-24.535092l19.423615 2.044591a121.993929 121.993929 0 0 1 108.874469 106.148349l10.222955 78.716753a17.038258 17.038258 0 0 0 17.038259 14.823284h2.214973a17.038258 17.038258 0 0 0 14.652902-19.082849l-10.222955-78.716753a156.070445 156.070445 0 0 0-139.202569-136.306065l-77.524075-8.007982a27.261213 27.261213 0 0 1-24.023944-21.638588L603.495447 732.645103a17.038258 17.038258 0 0 1 7.326451-3.407652 59.293139 59.293139 0 0 1 22.660883 11.074868 70.879154 70.879154 0 0 0 45.662532 16.015963 71.049537 71.049537 0 0 0 39.869524-27.261213c6.133773-6.644921 14.312137-15.675198 19.253232-17.038258a62.70079 62.70079 0 0 1 24.705474 7.837598 82.976317 82.976317 0 0 0 48.729419 10.904486 85.191291 85.191291 0 0 0 52.648218-37.143403 54.522426 54.522426 0 0 0-11.586016-74.286806z m-549.65421-146.699403v-162.374601h417.778092v162.374601a208.889046 208.889046 0 0 1-417.778092 0z m528.186005 173.619851a20.616292 20.616292 0 0 1 4.770712 28.283509A54.692809 54.692809 0 0 1 805.569189 698.568587a63.382321 63.382321 0 0 1-28.453891-8.519129 77.18331 77.18331 0 0 0-44.810619-10.393338 74.286806 74.286806 0 0 0-38.165699 26.920448c-6.133773 6.644921-14.652902 15.84558-19.253232 17.038258a61.678495 61.678495 0 0 1-23.001648-11.074868 74.457188 74.457188 0 0 0-42.936411-17.038258 243.306327 243.306327 0 0 0 146.188256-222.690035V293.228424a17.038258 17.038258 0 0 0-17.038259-17.038258H286.072696a17.038258 17.038258 0 0 0-17.038258 17.038258v179.412859a243.306327 243.306327 0 0 0 146.188255 222.690035 74.457188 74.457188 0 0 0-43.106793 17.038258 63.041555 63.041555 0 0 1-22.831266 11.074868c-4.60033 0-13.119459-9.88219-19.253232-17.038259a74.286806 74.286806 0 0 0-38.165698-26.920448 77.18331 77.18331 0 0 0-44.810619 10.393338 66.61959 66.61959 0 0 1-28.453891 8.519129 54.522426 54.522426 0 0 1-31.350395-23.512796 20.616292 20.616292 0 0 1 4.770712-28.283509 46.514445 46.514445 0 0 0 20.957057-36.97302 49.410949 49.410949 0 0 0-22.660883-40.721437c-8.348747-6.815303-10.393338-9.200659-10.222955-13.630607s2.214974-6.644921 10.734103-13.119459a46.003297 46.003297 0 0 0 1.703826-80.250196c-8.348747-6.815303-10.393338-9.030277-10.222955-13.630606s2.214974-6.644921 10.734102-13.119459a46.003297 46.003297 0 0 0 1.703826-80.250196c-8.178364-6.815303-10.393338-9.030277-10.222955-13.460224s2.214974-6.644921 10.734103-13.119459a49.581331 49.581331 0 0 0 24.364709-40.380672A261.026116 261.026116 0 0 1 479.116162 34.076516h65.767676a261.196498 261.196498 0 0 1 259.32229 254.04043 49.410949 49.410949 0 0 0 24.36471 39.699142c8.519129 6.474538 10.734103 8.689512 10.734102 13.119459s-2.044591 6.815303-10.222955 13.460224a46.003297 46.003297 0 0 0 1.703826 80.250196c8.519129 6.474538 10.734103 8.689512 10.734103 13.119459s-2.044591 6.815303-10.222955 13.630606a46.003297 46.003297 0 0 0 1.703826 80.250197c8.519129 6.474538 10.734103 8.689512 10.734102 13.119458s-2.044591 6.815303-10.222955 13.630607a49.410949 49.410949 0 0 0-22.660883 40.721437 46.514445 46.514445 0 0 0 21.297823 37.143403z" fill="#4C4497" /><path d="M628.371304 342.298607l-60.315434-4.941094a12.949076 12.949076 0 0 0-13.80099 11.586015 12.778694 12.778694 0 0 0 11.586016 13.800989l60.315434 4.941095h1.022296a12.778694 12.778694 0 0 0 1.022295-25.557387zM397.673287 367.685612l60.315434-4.941095a12.778694 12.778694 0 1 0-2.044591-25.387004l-60.315434 4.941094a12.778694 12.778694 0 0 0 1.022296 25.557388zM559.53674 513.36272a8.519129 8.519129 0 0 0-8.519129 8.519129 39.017611 39.017611 0 0 1-78.035222 0 8.519129 8.519129 0 0 0-17.038259 0 56.05587 56.05587 0 0 0 112.11174 0 8.519129 8.519129 0 0 0-8.51913-8.519129z" fill="#4C4497" /></svg>