<?xml version="1.0" standalone="no"?><!DOCTYPE svg PUBLIC "-//W3C//DTD SVG 1.1//EN" "http://www.w3.org/Graphics/SVG/1.1/DTD/svg11.dtd"><svg class="icon" width="200px" height="200.00px" viewBox="0 0 1024 1024" version="1.1" xmlns="http://www.w3.org/2000/svg"><path d="M196.266877 285.866476S218.965529 19.967987 523.434659 19.967987 810.666468 273.066485 810.666468 273.066485a97.791935 97.791935 0 0 0 21.333319 48.298634c17.066655 17.066655 38.399974 31.231979 25.599983 71.167953s-28.501314 92.501272 2.901331 123.73325 5.631996 81.066613-2.901331 119.466588 45.56797 56.831962 49.834633 85.333276-28.501314 69.631954-29.866647 96.767935 17.066655 41.301306 2.901332 58.367962a172.543885 172.543885 0 0 1-46.933302 32.767978h-648.532901S136.533584 900.266066 136.533584 880.29808s7.167995-58.367961 7.167995-71.167953-34.133311-39.765307-24.234651-72.533285 44.031971-61.098626 44.031971-86.698609S139.434915 580.26628 143.701579 551.764965s44.031971-63.999957 44.031971-85.333276-34.133311-59.733294-28.501315-88.234608 37.034642-59.562627 37.034642-92.330605z" fill="#FFF385" /><path d="M443.733379 696.490202h133.290578l29.866646 92.842605 82.090612 12.799992v46.933302s-60.757293 29.866647-175.957216 35.15731a284.842477 284.842477 0 0 1-195.242536-72.533285l105.642596-19.114654z" fill="#FFECE3" /><path d="M231.76552 839.167441c-42.666638 49.834633-51.199966 167.765221-51.199966 167.765221h657.066229s9.89866-103.765264-46.933302-159.231894a185.68521 185.68521 0 0 0-105.130597-43.349304 254.634497 254.634497 0 0 1-162.986558 55.466629 339.62644 339.62644 0 0 1-190.975872-52.223965 97.791935 97.791935 0 0 0-99.839934 31.573313z" fill="#6C9DFF" /><path d="M292.352146 293.717138l133.290578-21.674653L546.133311 218.965187l107.690594 47.615969 88.575941 21.333319V503.466331s-61.781292 200.5332-223.914517 200.5332c-204.799863 0-228.181181-213.333191-228.181181-213.333191z" fill="#FFECE3" /><path d="M685.567884 526.164983m-46.933302 0a46.933302 46.933302 0 1 0 93.866604 0 46.933302 46.933302 0 1 0-93.866604 0Z" fill="#EC7094" /><path d="M338.432116 526.164983m-46.933302 0a46.933302 46.933302 0 1 0 93.866604 0 46.933302 46.933302 0 1 0-93.866604 0Z" fill="#EC7094" /><path d="M512 716.799522a243.711838 243.711838 0 0 1-243.370504-243.370504V293.717138a17.066655 17.066655 0 0 1 17.066655-17.066656 562.175625 562.175625 0 0 0 141.823905-19.455987 337.919775 337.919775 0 0 0 104.277264-49.834633 17.066655 17.066655 0 0 1 21.674652 0 308.565128 308.565128 0 0 0 89.258608 46.591969 394.069071 394.069071 0 0 0 95.743936 22.357318 17.066655 17.066655 0 0 1 16.213322 17.066655v180.053214A243.711838 243.711838 0 0 1 512 716.799522zM302.762806 310.44246v162.986558a209.237194 209.237194 0 0 0 418.474388 0V308.906461A482.645012 482.645012 0 0 1 631.466587 286.378476a367.445088 367.445088 0 0 1-89.429274-44.543971 393.386404 393.386404 0 0 1-104.106597 48.298635 573.951617 573.951617 0 0 1-135.16791 20.30932z" fill="#4C4497" /><path d="M429.568055 442.197039m-33.962644 0a33.962644 33.962644 0 1 0 67.925288 0 33.962644 33.962644 0 1 0-67.925288 0Z" fill="#4C4497" /><path d="M594.431945 442.197039m-33.962644 0a33.962644 33.962644 0 1 0 67.925288 0 33.962644 33.962644 0 1 0-67.925288 0Z" fill="#4C4497" /><path d="M843.434446 1023.999317a17.066655 17.066655 0 0 1-17.066656-14.84799l-10.239993-78.847947a122.367918 122.367918 0 0 0-109.055927-106.325263l-77.653282-8.021328A61.269292 61.269292 0 0 1 575.658624 767.999488l-14.84799-71.509286a17.066655 17.066655 0 1 1 34.133311-6.997328l14.84799 71.509285a27.306648 27.306648 0 0 0 23.893317 21.674653l77.653282 8.021328a156.330562 156.330562 0 0 1 139.434573 136.533242l10.239994 78.847947a17.066655 17.066655 0 0 1-15.35999 17.919988zM180.565554 1023.999317h-2.218665a17.066655 17.066655 0 0 1-14.677323-19.114654l10.239993-78.847947a156.330562 156.330562 0 0 1 139.434573-136.533242l77.653282-8.021328a27.306648 27.306648 0 0 0 23.893317-21.674653l14.847991-71.509285a17.066655 17.066655 0 1 1 34.13331 6.997328L448.341376 767.999488a61.269292 61.269292 0 0 1-53.930631 48.639968l-77.653282 8.021328a122.367918 122.367918 0 0 0-109.055927 106.325262l-10.239993 78.847947a17.066655 17.066655 0 0 1-16.895989 14.165324z" fill="#4C4497" /><path d="M512 866.986089a333.482444 333.482444 0 0 1-194.730537-57.514629 8.533328 8.533328 0 0 1 10.239993-13.653324A316.074456 316.074456 0 0 0 512 849.919433c11.434659 0 22.869318 0 34.133311-1.535999a8.703994 8.703994 0 0 1 9.215993 7.679995 8.533328 8.533328 0 0 1-7.679994 9.215994c-11.775992 1.194666-23.722651 1.706666-35.66931 1.706666zM587.775949 859.47676a8.533328 8.533328 0 0 1-1.706665-17.066655l11.263992-2.559998a8.533328 8.533328 0 1 1 3.925331 17.066655l-11.946659 2.730665zM632.661253 847.018102a8.533328 8.533328 0 0 1-2.901332-17.066655 258.901161 258.901161 0 0 0 62.805292-31.743979 8.533328 8.533328 0 0 1 9.89866 13.994657 277.162482 277.162482 0 0 1-66.901289 34.133311 8.533328 8.533328 0 0 1-2.901331 0.682666zM553.642639 74.069284a8.533328 8.533328 0 0 1-7.850662-9.045327l2.730665-38.570641a8.362661 8.362661 0 0 1 9.045328-7.850662 8.533328 8.533328 0 0 1 7.850661 9.045328l-2.730665 38.570641a8.533328 8.533328 0 0 1-9.045327 7.850661zM543.743979 217.258522a8.533328 8.533328 0 0 1-7.850662-9.045327l7.679995-110.42126a8.362661 8.362661 0 0 1 9.045328-7.850662 8.533328 8.533328 0 0 1 7.850661 9.045328l-7.679995 110.421259a8.533328 8.533328 0 0 1-9.045327 7.850662zM836.26645 926.036716a17.066655 17.066655 0 0 1 0-34.133311 32.085312 32.085312 0 0 0 26.794649-14.506657 28.671981 28.671981 0 0 0 2.559999-27.477315 83.797277 83.797277 0 0 1-6.314663-24.575983 82.261278 82.261278 0 0 1 14.677324-57.343962 51.199966 51.199966 0 0 0-7.338662-68.266621 84.309277 84.309277 0 0 1-11.775992-109.567927 51.199966 51.199966 0 0 0-7.338662-68.266621 84.309277 84.309277 0 0 1-11.263993-110.079927 51.199966 51.199966 0 0 0-7.338661-68.266621A82.090612 82.090612 0 0 1 802.13314 290.13314a17.066655 17.066655 0 1 1 34.13331-3.583998 49.151967 49.151967 0 0 0 17.066656 32.767978 84.138611 84.138611 0 0 1 11.775992 109.567927 51.199966 51.199966 0 0 0 7.338662 68.266622 84.138611 84.138611 0 0 1 11.775992 109.567927 51.199966 51.199966 0 0 0 7.338662 68.266621 84.309277 84.309277 0 0 1 11.605325 110.079926 49.151967 49.151967 0 0 0-9.89866 35.66931 50.0053 50.0053 0 0 0 3.583998 14.677323 62.975958 62.975958 0 0 1-5.46133 59.90396 66.047956 66.047956 0 0 1-55.125297 30.71998zM185.685551 928.084715h-4.266664a59.39196 59.39196 0 0 1-51.199966-27.647982 63.999957 63.999957 0 0 1-3.925331-61.439959 51.199966 51.199966 0 0 0-5.973329-51.199966 84.309277 84.309277 0 0 1 11.775992-109.738593 51.199966 51.199966 0 0 0 7.338662-68.266622 84.138611 84.138611 0 0 1 11.775992-109.567926 51.199966 51.199966 0 0 0 7.338662-68.266622 84.138611 84.138611 0 0 1 12.117325-110.079926 48.981301 48.981301 0 0 0 17.066656-32.767978 17.066655 17.066655 0 0 1 18.77332-15.189324 17.066655 17.066655 0 0 1 15.189324 18.773321 82.090612 82.090612 0 0 1-26.28265 52.565298 51.199966 51.199966 0 0 0-7.338661 68.266622 84.138611 84.138611 0 0 1-11.605326 109.567927 51.199966 51.199966 0 0 0-7.338662 68.266621 84.138611 84.138611 0 0 1-11.605325 109.567927 51.199966 51.199966 0 0 0-7.338662 68.266621A85.333276 85.333276 0 0 1 157.696236 853.332764a30.037313 30.037313 0 0 0 1.535999 28.842648 25.429316 25.429316 0 0 0 22.186652 11.946659h4.266664a17.066655 17.066655 0 0 1 0 34.13331z" fill="#4C4497" /><path d="M221.86686 289.109141h-34.13331A295.59447 295.59447 0 0 1 481.450687 0h60.927959A295.765136 295.765136 0 0 1 836.26645 287.061142h-34.13331A261.461159 261.461159 0 0 0 542.549313 34.133311h-61.098626A261.290492 261.290492 0 0 0 221.86686 289.109141zM463.872032 374.442417a17.066655 17.066655 0 0 1-5.119997 0l-60.415959-18.773321a17.066655 17.066655 0 0 1 10.239993-32.597311L468.992029 341.333106a17.066655 17.066655 0 0 1-5.119997 34.13331zM560.127968 374.442417a17.066655 17.066655 0 0 1-5.119997-34.133311l60.41596-18.77332a17.066655 17.066655 0 0 1 10.239993 32.597311l-60.415959 18.773321a17.066655 17.066655 0 0 1-5.119997 1.535999zM566.101297 567.978288h-108.202594a8.533328 8.533328 0 0 1 0-17.066655h108.031928a8.533328 8.533328 0 0 1 0 17.066655z" fill="#4C4497" /></svg>