<?xml version="1.0" standalone="no"?><!DOCTYPE svg PUBLIC "-//W3C//DTD SVG 1.1//EN" "http://www.w3.org/Graphics/SVG/1.1/DTD/svg11.dtd"><svg t="1662867790803" class="icon" viewBox="0 0 1024 1024" version="1.1" xmlns="http://www.w3.org/2000/svg" p-id="18382" xmlns:xlink="http://www.w3.org/1999/xlink" width="200" height="200"><path d="M365.3 861.2c-1.2 0-2.3-0.3-3.4-0.9l-162.5-92.5c-2.1-1.2-3.5-3.5-3.5-6V257.6c0-2.4 1.3-4.6 3.3-5.9L495 71.9c1.1-0.7 2.3-1 3.6-1 1.2 0 2.3 0.3 3.4 0.9l162.5 91.8c2.2 1.2 3.5 3.5 3.5 6l0.9 513c0 2.5-1.3 4.7-3.4 6L368.7 860.3c-1 0.6-2.2 0.9-3.4 0.9z" fill="#FFFFFF" p-id="18383"></path><path d="M498.6 77.8l162.5 91.8 0.9 513-296.7 171.8-162.5-92.5V257.6L498.6 77.8m0-13.7c-2.5 0-4.9 0.7-7.1 2L195.6 245.8c-4.1 2.5-6.6 6.9-6.6 11.7v504.3c0 4.9 2.6 9.5 6.9 11.9l162.5 92.5c2.1 1.2 4.5 1.8 6.8 1.8 2.4 0 4.8-0.6 6.9-1.8l296.7-171.8c4.3-2.5 6.9-7 6.9-11.9l-0.9-513c0-4.9-2.7-9.5-7-11.9L505.4 65.8c-2.1-1.1-4.5-1.7-6.8-1.7z" fill="#0276F7" p-id="18384"></path><path d="M365.3 854.4V348.6" fill="#B5D6FB" p-id="18385"></path><path d="M358.4 348.6h13.7v505.8h-13.7z" fill="#0276F7" p-id="18386"></path><path d="M661.1 169.6l-295.8 179" fill="#B5D6FB" p-id="18387"></path><path d="M361.716 342.686l295.78-178.969 7.093 11.722-295.78 178.969z" fill="#0276F7" p-id="18388"></path><path d="M228.5 272l136.8 76.6" fill="#B5D6FB" p-id="18389"></path><path d="M365.3 355.4c-1.1 0-2.3-0.3-3.3-0.9L225.1 278c-3.3-1.9-4.5-6-2.6-9.4 1.9-3.3 6-4.5 9.4-2.6l136.8 76.6c3.3 1.9 4.5 6 2.6 9.4-1.3 2.2-3.6 3.4-6 3.4z" fill="#0276F7" p-id="18390"></path><path d="M227.6 686.7l104.3 62.1" fill="#B5D6FB" p-id="18391"></path><path d="M331.9 755.7c-1.2 0-2.4-0.3-3.5-1l-104.3-62.1c-3.3-1.9-4.3-6.2-2.4-9.4 1.9-3.3 6.2-4.3 9.4-2.4l104.3 62.1c3.3 1.9 4.3 6.2 2.4 9.4-1.3 2.2-3.6 3.4-5.9 3.4z" fill="#0276F7" p-id="18392"></path><path d="M227.6 640.8l104.3 62.1" fill="#B5D6FB" p-id="18393"></path><path d="M331.9 709.7c-1.2 0-2.4-0.3-3.5-1l-104.3-62.1c-3.3-1.9-4.3-6.2-2.4-9.4 1.9-3.3 6.2-4.3 9.4-2.4l104.3 62.1c3.3 1.9 4.3 6.2 2.4 9.4-1.3 2.2-3.6 3.4-5.9 3.4z" fill="#0276F7" p-id="18394"></path><path d="M227.6 594.8l104.3 62.1" fill="#B5D6FB" p-id="18395"></path><path d="M331.9 663.8c-1.2 0-2.4-0.3-3.5-1l-104.3-62.1c-3.3-1.9-4.3-6.2-2.4-9.4 1.9-3.3 6.2-4.3 9.4-2.4L335.4 651c3.3 1.9 4.3 6.2 2.4 9.4-1.3 2.2-3.6 3.4-5.9 3.4z" fill="#0276F7" p-id="18396"></path><path d="M194 505.1l171.3 96.4" fill="#B5D6FB" p-id="18397"></path><path d="M190.613 511.066l6.717-11.94 171.25 96.345-6.718 11.94z" fill="#0276F7" p-id="18398"></path><path d="M330.2 396.4l-22.4-11.2" fill="#B5D6FB" p-id="18399"></path><path d="M330.1 403.3c-1 0-2.1-0.2-3.1-0.7l-22.4-11.2c-3.4-1.7-4.8-5.8-3.1-9.2 1.7-3.4 5.8-4.8 9.2-3.1l22.4 11.2c3.4 1.7 4.8 5.8 3.1 9.2-1.1 2.4-3.5 3.8-6.1 3.8z" fill="#0276F7" p-id="18400"></path><path d="M527.8 953.1c-1.2 0-2.3-0.3-3.4-0.9l-162.5-92.5c-2.1-1.2-3.5-3.5-3.5-6V349.4c0-2.4 1.3-4.6 3.3-5.9l295.8-179.8c1.1-0.7 2.3-1 3.6-1 1.2 0 2.4 0.3 3.5 1l160.1 95c2.1 1.2 3.4 3.5 3.4 5.9v511.7c0 2.5-1.3 4.7-3.4 5.9L531.3 952.1c-1.1 0.7-2.3 1-3.5 1z" fill="#B5D6FB" p-id="18401"></path><path d="M661.1 169.6l160.1 95v511.7L527.8 946.2l-162.5-92.5V349.4l295.8-179.8m0-13.7c-2.5 0-4.9 0.7-7.1 2L358.2 337.6c-4.1 2.5-6.6 6.9-6.6 11.7v504.3c0 4.9 2.6 9.5 6.9 11.9L521 958.1c2.1 1.2 4.5 1.8 6.8 1.8 2.4 0 4.8-0.6 6.9-1.8l293.4-169.8c4.2-2.5 6.9-7 6.9-11.9V264.6c0-4.8-2.6-9.3-6.7-11.8l-160.1-95c-2.2-1.3-4.7-1.9-7.1-1.9z" fill="#0276F7" p-id="18402"></path><path d="M527.8 911.3V440.4" fill="#B5D6FB" p-id="18403"></path><path d="M527.8 918.2c-3.8 0-6.9-3.1-6.9-6.9V440.4c0-3.8 3.1-6.9 6.9-6.9 3.8 0 6.9 3.1 6.9 6.9v470.9c0 3.8-3.1 6.9-6.9 6.9z" fill="#0276F7" p-id="18404"></path><path d="M791.2 282.6L527.8 440.4" fill="#B5D6FB" p-id="18405"></path><path d="M527.8 447.2c-2.3 0-4.6-1.2-5.9-3.3-2-3.2-0.9-7.5 2.4-9.4l263.4-157.8c3.3-2 7.5-0.9 9.4 2.4 2 3.2 0.9 7.5-2.4 9.4L531.3 446.3c-1.1 0.6-2.3 0.9-3.5 0.9z" fill="#0276F7" p-id="18406"></path><path d="M394.6 365.8l133.2 74.6" fill="#B5D6FB" p-id="18407"></path><path d="M527.8 447.2c-1.1 0-2.3-0.3-3.3-0.9l-133.2-74.6c-3.3-1.9-4.5-6-2.6-9.4 1.9-3.3 6-4.5 9.4-2.6l133.2 74.6c3.3 1.9 4.5 6 2.6 9.4-1.4 2.3-3.7 3.5-6.1 3.5z" fill="#0276F7" p-id="18408"></path><path d="M389.7 783.2L494 845.3" fill="#B5D6FB" p-id="18409"></path><path d="M494 852.2c-1.2 0-2.4-0.3-3.5-1l-104.3-62.1c-3.3-1.9-4.3-6.2-2.4-9.4 1.9-3.3 6.2-4.3 9.4-2.4l104.3 62.1c3.3 1.9 4.3 6.2 2.4 9.4-1.3 2.2-3.6 3.4-5.9 3.4z" fill="#0276F7" p-id="18410"></path><path d="M389.7 737.3l104.3 62" fill="#B5D6FB" p-id="18411"></path><path d="M494 806.2c-1.2 0-2.4-0.3-3.5-1l-104.3-62.1c-3.3-1.9-4.3-6.2-2.4-9.4 1.9-3.3 6.2-4.3 9.4-2.4l104.3 62.1c3.3 1.9 4.3 6.2 2.4 9.4-1.3 2.2-3.6 3.4-5.9 3.4z" fill="#0276F7" p-id="18412"></path><path d="M389.7 691.3L494 753.4" fill="#B5D6FB" p-id="18413"></path><path d="M494 760.3c-1.2 0-2.4-0.3-3.5-1l-104.3-62.1c-3.3-1.9-4.3-6.2-2.4-9.4 1.9-3.3 6.2-4.3 9.4-2.4l104.3 62.1c3.3 1.9 4.3 6.2 2.4 9.4-1.3 2.2-3.6 3.4-5.9 3.4z" fill="#0276F7" p-id="18414"></path><path d="M361.1 599.5l166.7 93.8" fill="#B5D6FB" p-id="18415"></path><path d="M357.665 605.44l6.717-11.939L531.1 687.295l-6.717 11.94z" fill="#0276F7" p-id="18416"></path><path d="M487.9 483.5l-22.4-11.2" fill="#B5D6FB" p-id="18417"></path><path d="M487.9 490.3c-1 0-2.1-0.2-3.1-0.7l-22.4-11.2c-3.4-1.7-4.8-5.8-3.1-9.2 1.7-3.4 5.8-4.8 9.2-3.1l22.4 11.2c3.4 1.7 4.8 5.8 3.1 9.2-1.1 2.4-3.5 3.8-6.1 3.8z" fill="#0276F7" p-id="18418"></path></svg>